<svg xmlns="http://www.w3.org/2000/svg" viewBox="0 0 467.74 473.21"><defs><style>.cls-1{fill:#0a9b73;}.cls-2{fill:#fff;}</style></defs><g id="Layer_2" data-name="Layer 2"><circle class="cls-1" cx="233.87" cy="236.61" r="175.71"/><path class="cls-2" d="M193.15,154.5h70.72l-3.75-3.75.11,34.95,0,5a3.8,3.8,0,0,0,3.75,3.75h43l-3.75-3.75v87.43c0,4-.23,8.11,0,12.13v.17l3.75-3.75H207.18c-4.59,0-9.26-.26-13.84,0h-.19l3.75,3.75V168c0-5.66.15-11.35,0-17v-.24a3.75,3.75,0,0,0-7.5,0V273.17c0,5.66-.16,11.35,0,17v.23a3.8,3.8,0,0,0,3.75,3.75H293c4.61,0,9.23.15,13.84,0H307a3.8,3.8,0,0,0,3.75-3.75V203c0-4,.13-8.1,0-12.14v-.17a3.8,3.8,0,0,0-3.75-3.75H264l3.75,3.75-.11-34.94,0-5a3.8,3.8,0,0,0-3.75-3.75H193.15a3.75,3.75,0,1,0,0,7.5Z"/><rect class="cls-2" x="160.72" y="175.91" width="127.66" height="146.55"/><path class="cls-2" d="M288.38,318.71H176.45c-5.14,0-10.37-.27-15.51,0h-.22l3.75,3.75V181.88c0-1.9.09-3.83,0-5.73v-.24l-3.75,3.75H272.65c5.15,0,10.37.26,15.51,0h.22l-3.75-3.75V304.4c0,5.93-.15,11.88,0,17.81a2.09,2.09,0,0,1,0,.25,3.75,3.75,0,0,0,7.5,0V194c0-5.93.16-11.88,0-17.81v-.24a3.8,3.8,0,0,0-3.75-3.75H176.45c-5.16,0-10.35-.15-15.51,0h-.22a3.8,3.8,0,0,0-3.75,3.75V304.4c0,5.93-.15,11.88,0,17.81a2.09,2.09,0,0,1,0,.25,3.8,3.8,0,0,0,3.75,3.75H272.65c5.17,0,10.35.14,15.51,0h.22a3.75,3.75,0,0,0,0-7.5Z"/><path class="cls-1" d="M202.37,229H179.46l3.75,3.75V208.39l-3.75,3.75h22.91l-3.75-3.75v24.38a3.75,3.75,0,0,0,7.5,0V208.39a3.81,3.81,0,0,0-3.75-3.75H179.46a3.8,3.8,0,0,0-3.75,3.75v24.38a3.8,3.8,0,0,0,3.75,3.75h22.91a3.75,3.75,0,0,0,0-7.5Z"/><path class="cls-1" d="M202.37,286.22H179.46l3.75,3.75V265.59l-3.75,3.75h22.91l-3.75-3.75V290a3.75,3.75,0,0,0,7.5,0V265.59a3.8,3.8,0,0,0-3.75-3.75H179.46a3.8,3.8,0,0,0-3.75,3.75V290a3.8,3.8,0,0,0,3.75,3.75h22.91a3.75,3.75,0,0,0,0-7.5Z"/><path class="cls-1" d="M270.39,229H247.48l3.75,3.75V208.39l-3.75,3.75h22.91l-3.75-3.75v24.38a3.75,3.75,0,0,0,7.5,0V208.39a3.81,3.81,0,0,0-3.75-3.75H247.48a3.8,3.8,0,0,0-3.75,3.75v24.38a3.8,3.8,0,0,0,3.75,3.75h22.91a3.75,3.75,0,0,0,0-7.5Z"/><path class="cls-1" d="M217.47,208.39v24.38a3.75,3.75,0,0,0,7.5,0V208.39a3.75,3.75,0,0,0-7.5,0Z"/><path class="cls-1" d="M224.92,224.33h5.51a3.74,3.74,0,0,0,3.75-3.75,3.76,3.76,0,0,0-1.1-2.65,3.9,3.9,0,0,0-2.65-1.1h-5.51a3.87,3.87,0,0,0-2.65,1.1,3.82,3.82,0,0,0-1.1,2.65,3.87,3.87,0,0,0,1.1,2.66,3.92,3.92,0,0,0,2.65,1.09Z"/><path class="cls-1" d="M269.41,256.27H245a3.75,3.75,0,1,0,0,7.5h24.38a3.75,3.75,0,1,0,0-7.5Z"/><path class="cls-1" d="M253.47,263.72v5.51a3.87,3.87,0,0,0,1.1,2.65,3.82,3.82,0,0,0,2.65,1.1,3.75,3.75,0,0,0,2.65-1.1,3.85,3.85,0,0,0,1.1-2.65v-5.51a3.87,3.87,0,0,0-1.1-2.65,3.81,3.81,0,0,0-2.65-1.1,3.85,3.85,0,0,0-2.65,1.1,3.93,3.93,0,0,0-1.1,2.65Z"/><path class="cls-1" d="M224.92,293.72h5.51a3.87,3.87,0,0,0,2.65-1.1,3.82,3.82,0,0,0,1.1-2.65,3.75,3.75,0,0,0-1.1-2.65,3.85,3.85,0,0,0-2.65-1.1h-5.51a3.87,3.87,0,0,0-2.65,1.1,3.74,3.74,0,0,0,0,5.3,3.93,3.93,0,0,0,2.65,1.1Z"/><path class="cls-1" d="M224.92,281.53h5.51a3.87,3.87,0,0,0,2.65-1.1,3.82,3.82,0,0,0,1.1-2.65,3.75,3.75,0,0,0-1.1-2.65,3.85,3.85,0,0,0-2.65-1.1h-5.51a3.87,3.87,0,0,0-2.65,1.1,3.74,3.74,0,0,0,0,5.3,3.93,3.93,0,0,0,2.65,1.1Z"/><path class="cls-1" d="M247.48,249.56h22.91a3.75,3.75,0,0,0,0-7.5H247.48a3.75,3.75,0,1,0,0,7.5Z"/><path class="cls-1" d="M179.46,254.4H196a3.75,3.75,0,0,0,0-7.5H179.46a3.75,3.75,0,0,0,0,7.5Z"/><path class="cls-1" d="M234.63,263.81V250.65a3.8,3.8,0,0,0-3.75-3.75H219a3.75,3.75,0,0,0,0,7.5h11.91l-3.75-3.75v13.16a3.75,3.75,0,0,0,7.5,0Z"/><path class="cls-1" d="M257.22,293.72h13.17a3.8,3.8,0,0,0,3.75-3.75V278.06a3.75,3.75,0,0,0-7.5,0V290l3.75-3.75H257.22a3.75,3.75,0,0,0,0,7.5Z"/><polygon class="cls-1" points="307.02 190.68 264 190.68 263.87 150.75 307.02 190.68"/><path class="cls-2" d="M307,186.93H264l3.75,3.75-.11-34.94,0-5-6.4,2.66,14.63,13.53L299,188.4l5.33,4.93a3.75,3.75,0,0,0,5.3-5.3L295.05,174.5,271.85,153l-5.33-4.93a3.8,3.8,0,0,0-6.4,2.65l.11,34.95,0,5a3.8,3.8,0,0,0,3.75,3.75h43a3.75,3.75,0,0,0,0-7.5Z"/></g></svg>