<svg xmlns="http://www.w3.org/2000/svg" viewBox="0 0 467.74 473.21"><defs><style>.cls-1{fill:#0a9b73;}.cls-2{fill:#fff;}</style></defs><g id="Layer_2" data-name="Layer 2"><circle class="cls-1" cx="233.87" cy="236.61" r="175.71"/><rect class="cls-2" x="146.72" y="157.02" width="174.3" height="131.74"/><path class="cls-2" d="M146.72,160.77H313.94c2.25,0,4.53.09,6.79,0a2.8,2.8,0,0,1,.29,0L317.27,157V272.61c0,5.29-.26,10.65,0,15.93a1.62,1.62,0,0,1,0,.22L321,285H153.81c-2.26,0-4.54-.09-6.79,0h-.3l3.75,3.75V173.17c0-5.3.15-10.63,0-15.93V157a3.75,3.75,0,0,0-7.5,0V272.61c0,5.31-.14,10.63,0,15.93a1.62,1.62,0,0,1,0,.22,3.8,3.8,0,0,0,3.75,3.75H313.94c2.26,0,4.53.05,6.79,0H321a3.8,3.8,0,0,0,3.75-3.75V173.17c0-5.3.15-10.63,0-15.93V157a3.8,3.8,0,0,0-3.75-3.75H153.81c-2.26,0-4.53-.05-6.79,0h-.3a3.75,3.75,0,0,0,0,7.5Z"/><rect class="cls-1" x="152.51" y="164.68" width="162.04" height="101.7"/><path class="cls-2" d="M182,254.4l10.14-18.2,16.14-29,3.68-6.61-5.89.76L220,217.63l22.15,25.81,5.09,5.93c1.58,1.85,4.76,1.22,5.89-.76L266,226.15l20.3-35.48,4.64-8.1a3.75,3.75,0,0,0-6.48-3.78l-12.85,22.45-20.3,35.49-4.64,8.1,5.89-.76-14-16.26L216.43,202l-5.1-5.93c-1.57-1.83-4.78-1.23-5.89.76L195.3,215l-16.14,29-3.67,6.61A3.75,3.75,0,1,0,182,254.4Z"/><path class="cls-2" d="M270.64,312.44H197.45a3.75,3.75,0,0,0,0,7.5h73.19a3.75,3.75,0,0,0,0-7.5Z"/><polygon class="cls-2" points="204.6 316.19 263.32 316.19 256.68 289.81 211.06 289.81 204.6 316.19"/></g></svg>