<svg xmlns="http://www.w3.org/2000/svg" viewBox="0 0 467.74 473.21"><defs><style>.cls-1{fill:#0a9b73;}.cls-2{fill:#fff;}</style></defs><g id="Layer_2" data-name="Layer 2"><circle class="cls-1" cx="233.87" cy="236.61" r="175.71"/><path class="cls-2" d="M278,292.44v29.27l3.75-3.75H191.62c-4.15,0-8.38-.23-12.52,0a1.08,1.08,0,0,1-.18,0l3.75,3.75V158.41c0-2.2.1-4.43,0-6.63a2.62,2.62,0,0,1,0-.28l-3.75,3.75H269c4.15,0,8.37.23,12.52,0h.18L278,151.5V198a3.75,3.75,0,1,0,7.5,0V151.5a3.8,3.8,0,0,0-3.75-3.75H191.62c-4.17,0-8.36-.13-12.52,0h-.18a3.8,3.8,0,0,0-3.75,3.75V300.77c0,6.88-.17,13.79,0,20.67v.27a3.8,3.8,0,0,0,3.75,3.75H269c4.17,0,8.35.13,12.52,0h.18a3.81,3.81,0,0,0,3.75-3.75V292.44a3.75,3.75,0,0,0-7.5,0Z"/><path class="cls-2" d="M236.39,229.64h-19l3.75,3.75V213.22L217.43,217h19l-3.75-3.75v20.17a3.75,3.75,0,0,0,7.5,0V213.22a3.81,3.81,0,0,0-3.75-3.75h-19a3.8,3.8,0,0,0-3.75,3.75v20.17a3.8,3.8,0,0,0,3.75,3.75h19a3.75,3.75,0,0,0,0-7.5Z"/><path class="cls-2" d="M236.39,277h-19l3.75,3.75V260.54l-3.75,3.75h19l-3.75-3.75v20.17a3.75,3.75,0,0,0,7.5,0V260.54a3.81,3.81,0,0,0-3.75-3.75h-19a3.8,3.8,0,0,0-3.75,3.75v20.17a3.8,3.8,0,0,0,3.75,3.75h19a3.75,3.75,0,0,0,0-7.5Z"/><path class="cls-2" d="M292.66,229.64h-19l3.75,3.75V213.22L273.7,217h19l-3.75-3.75v20.17a3.75,3.75,0,0,0,7.5,0V213.22a3.81,3.81,0,0,0-3.75-3.75h-19a3.81,3.81,0,0,0-3.75,3.75v20.17a3.8,3.8,0,0,0,3.75,3.75h19a3.75,3.75,0,0,0,0-7.5Z"/><path class="cls-2" d="M248.23,213.22v20.17a3.75,3.75,0,0,0,7.5,0V213.22a3.75,3.75,0,0,0-7.5,0Z"/><path class="cls-2" d="M255.05,227.06h4.55a3.87,3.87,0,0,0,2.65-1.1,2.75,2.75,0,0,0,.78-1.21,2.82,2.82,0,0,0,.32-1.44,3.75,3.75,0,0,0-1.1-2.65,3.85,3.85,0,0,0-2.65-1.1h-4.55a3.87,3.87,0,0,0-2.66,1.1,2.85,2.85,0,0,0-.77,1.2,2.78,2.78,0,0,0-.32,1.45,3.8,3.8,0,0,0,1.09,2.65,3.94,3.94,0,0,0,2.66,1.1Z"/><path class="cls-2" d="M255.05,284.46h4.55a3.87,3.87,0,0,0,2.65-1.1,2.72,2.72,0,0,0,.78-1.2,2.88,2.88,0,0,0,.32-1.45,3.76,3.76,0,0,0-1.1-2.65,3.9,3.9,0,0,0-2.65-1.1h-4.55a3.87,3.87,0,0,0-2.66,1.1,2.82,2.82,0,0,0-.77,1.21,2.77,2.77,0,0,0-.32,1.44,3.78,3.78,0,0,0,1.09,2.65,3.89,3.89,0,0,0,2.66,1.1Z"/><path class="cls-2" d="M255.05,274.38h4.55a3.87,3.87,0,0,0,2.65-1.1,2.75,2.75,0,0,0,.78-1.21,2.85,2.85,0,0,0,.32-1.44,3.75,3.75,0,0,0-1.1-2.65,3.85,3.85,0,0,0-2.65-1.1h-4.55a3.87,3.87,0,0,0-2.66,1.1,2.85,2.85,0,0,0-.77,1.2,2.78,2.78,0,0,0-.32,1.45,3.8,3.8,0,0,0,1.09,2.65,3.94,3.94,0,0,0,2.66,1.1Z"/><path class="cls-2" d="M217.43,251.93h13.66a3.75,3.75,0,0,0,0-7.5H217.43a3.75,3.75,0,0,0,0,7.5Z"/><path class="cls-2" d="M203.07,211.76v-17l-3.75,3.75h16.73a3.75,3.75,0,0,0,0-7.5H199.32a3.81,3.81,0,0,0-3.75,3.75v17a3.75,3.75,0,0,0,7.5,0Z"/><path class="cls-2" d="M315.78,211.76v-17A3.81,3.81,0,0,0,312,191H295.3a3.75,3.75,0,0,0,0,7.5H312l-3.75-3.75v17a3.75,3.75,0,0,0,7.5,0Z"/><path class="cls-2" d="M263.72,259.07V248.18a3.8,3.8,0,0,0-3.75-3.75h-9.85a3.75,3.75,0,0,0,0,7.5H260l-3.75-3.75v10.89a3.75,3.75,0,0,0,7.5,0Z"/><path class="cls-2" d="M195.57,280.71v17a3.8,3.8,0,0,0,3.75,3.75h16.73a3.75,3.75,0,0,0,0-7.5H199.32l3.75,3.75v-17a3.75,3.75,0,0,0-7.5,0Z"/><path class="cls-2" d="M308.28,280.71v17L312,294H295.3a3.75,3.75,0,1,0,0,7.5H312a3.8,3.8,0,0,0,3.75-3.75v-17a3.75,3.75,0,0,0-7.5,0Z"/><path class="cls-2" d="M269.2,267.17l11.33,14c1.26,1.56,4,1.34,5.3,0l11.1-11.47,17.78-18.38,4.05-4.19a3.75,3.75,0,1,0-5.3-5.31l-11.1,11.47-17.77,18.38-4.06,4.2h5.3l-11.32-14c-1.28-1.57-4-1.33-5.31,0a3.84,3.84,0,0,0,0,5.3Z"/></g></svg>